<svg width="180" height="40" viewBox="0 0 180 40" fill="none" xmlns="http://www.w3.org/2000/svg">
  <path d="M0 20C0 8.954 8.954 0 20 0H40C31.716 0 25 6.716 25 15V25C25 33.284 31.716 40 40 40H20C8.954 40 0 31.046 0 20Z" fill="url(#paint0_linear)" />
  <path d="M15 15V25L25 20L15 15Z" fill="white" />
  <path d="M49.392 28V12.8H53.76C55.312 12.8 56.616 13.072 57.672 13.616C58.728 14.16 59.512 14.912 60.024 15.872C60.552 16.832 60.816 17.936 60.816 19.184V21.616C60.816 22.864 60.552 23.968 60.024 24.928C59.512 25.888 58.728 26.64 57.672 27.184C56.616 27.728 55.312 28 53.76 28H49.392ZM52.512 15.344V25.456H53.76C55.024 25.456 55.976 25.12 56.616 24.448C57.256 23.776 57.584 22.768 57.584 21.424V19.376C57.584 18.032 57.256 17.024 56.616 16.352C55.976 15.68 55.024 15.344 53.76 15.344H52.512Z" fill="#005A8B" />
  <path d="M67.734 28.192C66.614 28.192 65.63 27.952 64.782 27.472C63.95 26.992 63.294 26.32 62.814 25.456C62.35 24.592 62.118 23.6 62.118 22.48V21.808C62.118 20.672 62.35 19.664 62.814 18.784C63.294 17.904 63.95 17.216 64.782 16.72C65.63 16.224 66.614 15.976 67.734 15.976C68.854 15.976 69.83 16.224 70.662 16.72C71.51 17.216 72.166 17.904 72.63 18.784C73.11 19.664 73.35 20.672 73.35 21.808V22.48C73.35 23.6 73.11 24.592 72.63 25.456C72.166 26.32 71.51 26.992 70.662 27.472C69.83 27.952 68.854 28.192 67.734 28.192ZM67.734 25.648C68.486 25.648 69.102 25.368 69.582 24.808C70.062 24.248 70.302 23.472 70.302 22.48V21.808C70.302 20.8 70.062 20.016 69.582 19.456C69.118 18.896 68.502 18.616 67.734 18.616C66.982 18.616 66.366 18.896 65.886 19.456C65.406 20.016 65.166 20.8 65.166 21.808V22.48C65.166 23.472 65.398 24.248 65.862 24.808C66.342 25.368 66.966 25.648 67.734 25.648Z" fill="#005A8B" />
  <path d="M79.798 28.192C78.678 28.192 77.694 27.952 76.846 27.472C76.014 26.992 75.358 26.32 74.878 25.456C74.414 24.592 74.182 23.6 74.182 22.48V21.808C74.182 20.672 74.414 19.664 74.878 18.784C75.358 17.904 76.014 17.216 76.846 16.72C77.694 16.224 78.678 15.976 79.798 15.976C80.918 15.976 81.894 16.224 82.726 16.72C83.574 17.216 84.23 17.904 84.694 18.784C85.174 19.664 85.414 20.672 85.414 21.808V22.48C85.414 23.6 85.174 24.592 84.694 25.456C84.23 26.32 83.574 26.992 82.726 27.472C81.894 27.952 80.918 28.192 79.798 28.192ZM79.798 25.648C80.55 25.648 81.166 25.368 81.646 24.808C82.126 24.248 82.366 23.472 82.366 22.48V21.808C82.366 20.8 82.126 20.016 81.646 19.456C81.182 18.896 80.566 18.616 79.798 18.616C79.046 18.616 78.43 18.896 77.95 19.456C77.47 20.016 77.23 20.8 77.23 21.808V22.48C77.23 23.472 77.462 24.248 77.926 24.808C78.406 25.368 79.03 25.648 79.798 25.648Z" fill="#005A8B" />
  <path d="M99.4204 16.168L95.9804 28H92.7404L90.1404 19.352L87.6164 28H84.3884L80.9244 16.168H83.9004L86.1724 25.432L88.7244 16.168H91.6764L94.2284 25.312L96.5004 16.168H99.4204Z" fill="#008080" />
  <path d="M108.285 25.432H102.909L101.925 28H98.8526L104.229 16.168H107.013L112.341 28H109.269L108.285 25.432ZM107.325 23.032L105.597 18.64L103.869 23.032H107.325Z" fill="#008080" />
  <path d="M118.295 28.192C117.175 28.192 116.199 27.968 115.367 27.52C114.535 27.056 113.887 26.4 113.423 25.552C112.975 24.688 112.751 23.68 112.751 22.528V21.76C112.751 20.608 112.975 19.608 113.423 18.76C113.887 17.896 114.535 17.24 115.367 16.792C116.199 16.328 117.175 16.096 118.295 16.096C119.927 16.096 121.239 16.512 122.231 17.344C123.223 18.16 123.799 19.328 123.959 20.848H120.935C120.839 20.032 120.591 19.432 120.191 19.048C119.807 18.648 119.183 18.448 118.319 18.448C117.439 18.448 116.751 18.744 116.255 19.336C115.759 19.928 115.511 20.752 115.511 21.808V22.48C115.511 23.536 115.759 24.36 116.255 24.952C116.751 25.544 117.439 25.84 118.319 25.84C119.183 25.84 119.807 25.648 120.191 25.264C120.591 24.864 120.839 24.248 120.935 23.416H123.959C123.799 24.92 123.223 26.08 122.231 26.896C121.239 27.76 119.927 28.192 118.295 28.192Z" fill="#008080" />
  <path d="M131.171 16.168C132.675 16.168 133.859 16.568 134.723 17.368C135.603 18.168 136.043 19.328 136.043 20.848V28H133.115V26.248C132.219 27.544 130.803 28.192 128.867 28.192C127.651 28.192 126.683 27.864 125.963 27.208C125.259 26.552 124.907 25.696 124.907 24.64C124.907 23.536 125.275 22.672 126.011 22.048C126.763 21.408 127.883 21.088 129.371 21.088H132.995C132.995 20.288 132.771 19.696 132.323 19.312C131.875 18.912 131.203 18.712 130.307 18.712C129.651 18.712 129.003 18.824 128.363 19.048C127.739 19.256 127.219 19.552 126.803 19.936L125.555 17.872C126.195 17.344 126.971 16.944 127.883 16.672C128.795 16.336 129.947 16.168 131.171 16.168ZM129.803 25.96C130.459 25.96 131.043 25.8 131.555 25.48C132.083 25.144 132.467 24.68 132.707 24.088V23.032H129.707C128.155 23.032 127.379 23.568 127.379 24.64C127.379 25.152 127.563 25.552 127.931 25.84C128.299 26.112 128.955 26.256 129.803 25.96Z" fill="#008080" />
  <path d="M147.672 28.192C146.552 28.192 145.568 27.952 144.72 27.472C143.888 26.992 143.232 26.32 142.752 25.456C142.288 24.592 142.056 23.6 142.056 22.48V21.808C142.056 20.672 142.288 19.664 142.752 18.784C143.232 17.904 143.888 17.216 144.72 16.72C145.568 16.224 146.552 15.976 147.672 15.976C148.792 15.976 149.768 16.224 150.6 16.72C151.448 17.216 152.104 17.904 152.568 18.784C153.048 19.664 153.288 20.672 153.288 21.808V22.48C153.288 23.6 153.048 24.592 152.568 25.456C152.104 26.32 151.448 26.992 150.6 27.472C149.768 27.952 148.792 28.192 147.672 28.192ZM147.672 25.648C148.424 25.648 149.04 25.368 149.52 24.808C150 24.248 150.24 23.472 150.24 22.48V21.808C150.24 20.8 150 20.016 149.52 19.456C149.056 18.896 148.44 18.616 147.672 18.616C146.92 18.616 146.304 18.896 145.824 19.456C145.344 20.016 145.104 20.8 145.104 21.808V22.48C145.104 23.472 145.336 24.248 145.8 24.808C146.28 25.368 146.904 25.648 147.672 25.648Z" fill="#008080" />
  <path d="M155.36 28V16.168H158.288V18.112C159.184 16.752 160.568 16.072 162.44 16.072C163.576 16.072 164.544 16.384 165.344 17.008C166.144 17.616 166.544 18.536 166.544 19.768V28H163.544V20.536C163.544 19.736 163.336 19.144 162.92 18.76C162.52 18.36 161.944 18.16 161.192 18.16C160.312 18.16 159.6 18.408 159.056 18.904C158.528 19.4 158.264 20.104 158.264 21.016V28H155.36Z" fill="#008080" />
  <path d="M173.28 15.968C174.16 15.968 174.952 16.168 175.656 16.568C176.376 16.952 176.936 17.504 177.336 18.232V16.168H180.264V28.048C180.264 29.232 180.016 30.248 179.52 31.096C179.04 31.96 178.344 32.624 177.432 33.088C176.536 33.552 175.488 33.784 174.288 33.784C172.72 33.784 171.44 33.456 170.448 32.8C169.456 32.144 168.92 31.24 168.84 30.088H171.72C171.848 30.536 172.144 30.888 172.608 31.144C173.088 31.4 173.656 31.528 174.312 31.528C175.08 31.528 175.712 31.296 176.208 30.832C176.72 30.384 176.976 29.688 176.976 28.744V25.864C176.576 26.6 176.016 27.168 175.296 27.568C174.592 27.952 173.8 28.144 172.92 28.144C171.96 28.144 171.088 27.896 170.304 27.4C169.536 26.904 168.928 26.216 168.48 25.336C168.048 24.44 167.832 23.424 167.832 22.288V21.88C167.832 20.744 168.048 19.736 168.48 18.856C168.928 17.96 169.536 17.264 170.304 16.768C171.088 16.272 172.128 16.024 173.28 15.968ZM174.096 18.472C173.12 18.472 172.352 18.768 171.792 19.36C171.248 19.952 170.976 20.784 170.976 21.856V22.264C170.976 23.336 171.248 24.168 171.792 24.76C172.352 25.352 173.12 25.648 174.096 25.648C174.768 25.648 175.36 25.496 175.872 25.192C176.384 24.872 176.768 24.432 177.024 23.872C177.296 23.312 177.432 22.704 177.432 22.048V22.072C177.432 21.416 177.296 20.816 177.024 20.272C176.768 19.712 176.384 19.272 175.872 18.952C175.36 18.632 174.768 18.472 174.096 18.472Z" fill="#008080" />
  <defs>
    <linearGradient id="paint0_linear" x1="0" y1="20" x2="40" y2="20" gradientUnits="userSpaceOnUse">
      <stop stop-color="#005A8B" />
      <stop offset="1" stop-color="#008080" />
    </linearGradient>
  </defs>
</svg>
